<svg xmlns="http://www.w3.org/2000/svg" xmlns:xlink="http://www.w3.org/1999/xlink" width="260" height="290" viewBox="0 0 260 290">
  <defs>
    <clipPath id="clip-sunrise-flat-s">
      <rect width="260" height="290"/>
    </clipPath>
  </defs>
  <g id="sunrise-flat-s" clip-path="url(#clip-sunrise-flat-s)">
    <g id="Gruppe_12" data-name="Gruppe 12" transform="translate(-6 -104)">
      <g id="Pfad_14" data-name="Pfad 14" transform="translate(56.688 231.61)" fill="#f59043">
        <path d="M 58.42827987670898 69.34371948242188 C 34.71907043457031 69.34371948242188 19.46125411987305 69.27170562744141 10.67892360687256 69.17449188232422 C 15.40022277832031 35.77346801757813 44.17657089233398 10.00001525878906 78.85980987548828 10.00001525878906 C 113.4967269897461 10.00001525878906 142.2431640625 35.70928955078125 147.0223388671875 69.0452880859375 C 129.7367706298828 69.19811248779297 93.00816345214844 69.34371948242188 58.42827987670898 69.34371948242188 Z" stroke="none"/>
        <path d="M 78.85980987548828 20.00001525878906 C 53.26828765869141 20.00001525878906 31.43941497802734 36.4159049987793 23.350830078125 59.27146911621094 C 31.54322814941406 59.31390380859375 42.84322357177734 59.34372329711914 58.42781066894531 59.34372329711914 C 85.76189422607422 59.34372329711914 114.9167785644531 59.25032043457031 134.3204803466797 59.13552093505859 C 126.1930236816406 36.35185623168945 104.3998260498047 20.00001525878906 78.85980987548828 20.00001525878906 M 78.85980987548828 1.52587890625e-05 C 122.4128875732422 1.52587890625e-05 157.7196044921875 35.30672454833984 157.7196044921875 78.85980987548828 C 157.7196044921875 79.08537292480469 103.3266906738281 79.34371185302734 58.42779541015625 79.34371185302734 C 26.86650085449219 79.34371185302734 1.52587890625e-05 79.21612548828125 1.52587890625e-05 78.85980987548828 C 1.52587890625e-05 35.30672454833984 35.30672454833984 1.52587890625e-05 78.85980987548828 1.52587890625e-05 Z" stroke="none" fill="#f59043"/>
      </g>
      <g id="Pfad_16" data-name="Pfad 16" transform="matrix(0.819, 0.574, -0.574, 0.819, 189.949, 196.75)" fill="#f59043">
        <path d="M 28.06468391418457 26.88634490966797 C 25.87361526489258 26.68463516235352 23.59331893920898 26.55943489074707 21.30807113647461 26.55943489074707 C 18.95260047912598 26.55943489074707 16.60258674621582 26.67908096313477 14.35148620605469 26.87000465393066 L 21.19260025024414 15.00107383728027 L 28.06468391418457 26.88634490966797 Z" stroke="none"/>
        <path d="M 21.18241882324219 7.62939453125e-06 L 42.62312698364258 37.08171463012695 C 42.62312698364258 37.08171463012695 31.89927291870117 34.05944442749023 21.30806541442871 34.05944442749023 C 10.71685791015625 34.05944442749023 3.814697265625e-06 36.75019454956055 3.814697265625e-06 36.75019454956055 L 21.18241882324219 7.62939453125e-06 Z" stroke="none" fill="#f59043"/>
      </g>
      <g id="Pfad_17" data-name="Pfad 17" transform="translate(114.72 186.736)" fill="#f59043">
        <path d="M 28.06468391418457 26.88634490966797 C 25.87361526489258 26.68463516235352 23.59331893920898 26.55943489074707 21.30807113647461 26.55943489074707 C 18.95260047912598 26.55943489074707 16.60258674621582 26.67908096313477 14.35148620605469 26.87000465393066 L 21.19260025024414 15.00107383728027 L 28.06468391418457 26.88634490966797 Z" stroke="none"/>
        <path d="M 21.18241882324219 7.62939453125e-06 L 42.62312698364258 37.08171463012695 C 42.62312698364258 37.08171463012695 31.89927291870117 34.05944442749023 21.30806541442871 34.05944442749023 C 10.71685791015625 34.05944442749023 3.814697265625e-06 36.75019454956055 3.814697265625e-06 36.75019454956055 L 21.18241882324219 7.62939453125e-06 Z" stroke="none" fill="#f59043"/>
      </g>
      <g id="Pfad_18" data-name="Pfad 18" transform="translate(104.859 226.595) rotate(146)" fill="#f59043">
        <path d="M 21.19255447387695 22.08064651489258 L 14.35145854949951 10.21173858642578 C 16.60255813598633 10.40265846252441 18.95259666442871 10.52230930328369 21.30806350708008 10.52230644226074 C 23.59330558776855 10.52230453491211 25.87357711791992 10.39710426330566 28.06464195251465 10.19539165496826 L 21.19255447387695 22.08064651489258 Z" stroke="none"/>
        <path d="M 21.18235778808594 37.08170700073242 L 2.751668262135354e-06 0.3315618336200714 C 2.751668262135354e-06 0.3315618336200714 10.71685695648193 3.022311925888062 21.30804443359375 3.022311925888062 C 31.89923286437988 3.022290945053101 42.62308502197266 -6.663004796791938e-07 42.62308502197266 -6.663004796791938e-07 L 21.18235778808594 37.08170700073242 Z" stroke="none" fill="#f59043"/>
      </g>
      <g id="Pfad_19" data-name="Pfad 19" transform="translate(244.725 246.622) rotate(69)" fill="#f59043">
        <path d="M 28.06468391418457 26.88634490966797 C 25.87361526489258 26.68463516235352 23.59331893920898 26.55943489074707 21.30807113647461 26.55943489074707 C 18.95260047912598 26.55943489074707 16.60258674621582 26.67908096313477 14.35148620605469 26.87000465393066 L 21.19260025024414 15.00107383728027 L 28.06468391418457 26.88634490966797 Z" stroke="none"/>
        <path d="M 21.18241882324219 7.62939453125e-06 L 42.62312698364258 37.08171463012695 C 42.62312698364258 37.08171463012695 31.89927291870117 34.05944442749023 21.30806541442871 34.05944442749023 C 10.71685791015625 34.05944442749023 3.814697265625e-06 36.75019454956055 3.814697265625e-06 36.75019454956055 L 21.18241882324219 7.62939453125e-06 Z" stroke="none" fill="#f59043"/>
      </g>
      <g id="Pfad_20" data-name="Pfad 20" transform="matrix(-0.358, 0.934, -0.934, -0.358, 62.468, 259.91)" fill="#f59043">
        <path d="M 21.19255447387695 22.08064651489258 L 14.35145854949951 10.21173858642578 C 16.60255813598633 10.40265846252441 18.95259666442871 10.52230930328369 21.30806350708008 10.52230644226074 C 23.59330558776855 10.52230453491211 25.87357711791992 10.39710426330566 28.06464195251465 10.19539165496826 L 21.19255447387695 22.08064651489258 Z" stroke="none"/>
        <path d="M 21.18235778808594 37.08170700073242 L 2.751668262135354e-06 0.3315618336200714 C 2.751668262135354e-06 0.3315618336200714 10.71685695648193 3.022311925888062 21.30804443359375 3.022311925888062 C 31.89923286437988 3.022290945053101 42.62308502197266 -6.663004796791938e-07 42.62308502197266 -6.663004796791938e-07 L 21.18235778808594 37.08170700073242 Z" stroke="none" fill="#f59043"/>
      </g>
    </g>
    <g id="Pfad_21" data-name="Pfad 21" transform="translate(104.692 126.702)" fill="#fff">
      <path d="M 42.19610977172852 58.16096496582031 L 7.944292068481445 57.95849609375 L 25.36501312255859 31.77750015258789 L 42.19610977172852 58.16096496582031 Z" stroke="none"/>
      <path d="M 25.23263549804688 45.51514053344727 L 21.88858795166016 50.54079437255859 L 28.4635009765625 50.57965850830078 L 25.23263549804688 45.51514053344727 M 25.49737930297852 18.03986358642578 L 55.9287223815918 65.74227142333984 L -6.000007629394531 65.37618255615234 L 25.49737930297852 18.03986358642578 Z" stroke="none" fill="#fff"/>
    </g>
  </g>
</svg>
