<svg xmlns="http://www.w3.org/2000/svg" xmlns:xlink="http://www.w3.org/1999/xlink" width="260" height="290" viewBox="0 0 260 290">
  <defs>
    <clipPath id="clip-temparature-warm-s">
      <rect width="260" height="290"/>
    </clipPath>
  </defs>
  <g id="temparature-warm-s" clip-path="url(#clip-temparature-warm-s)">
    <g id="Pfad_8" data-name="Pfad 8" transform="translate(121)" fill="#fff">
      <path d="M 9.572178840637207 289.5 C 2.527643203735352 289.5 -4.048356533050537 288.2402038574219 -9.973249435424805 285.7556762695313 C -15.45778560638428 283.4557800292969 -20.31539154052734 280.1434326171875 -24.41114234924316 275.9105529785156 C -26.54046440124512 273.7099914550781 -28.4536075592041 271.2633972167969 -30.09739303588867 268.638671875 C -31.70010757446289 266.0795288085938 -33.05671310424805 263.3358764648438 -34.12946319580078 260.4840698242188 C -35.18650054931641 257.6739807128906 -35.97174835205078 254.7494659423828 -36.46335601806641 251.7915954589844 C -36.95360565185547 248.8422393798828 -37.15299987792969 245.8534545898438 -37.05603408813477 242.9083099365234 C -36.88578414916992 237.7377777099609 -35.8010368347168 232.6567077636719 -33.83189392089844 227.8061676025391 C -32.2552490234375 223.9224548339844 -30.11114311218262 220.1762390136719 -27.45921325683594 216.671630859375 C -22.94439315795898 210.7052459716797 -18.48003578186035 207.4821014404297 -18.43546295166016 207.4502410888672 L -18.22624969482422 207.3006744384766 L -18.22624969482422 207.0435028076172 L -18.22624969482422 27.84406661987305 C -18.22624969482422 24.15242385864258 -17.50335693359375 20.57145881652832 -16.07760620117188 17.20067405700684 C -14.7004280090332 13.94460296630859 -12.72874927520752 11.0202808380127 -10.21735668182373 8.508888244628906 C -7.705963611602783 5.997495651245117 -4.781642436981201 4.025816917419434 -1.52557098865509 2.648638248443604 C 1.84521472454071 1.222888350486755 5.426178932189941 0.4999954402446747 9.11782169342041 0.4999954402446747 C 12.80946445465088 0.4999954402446747 16.39042854309082 1.222888350486755 19.76121520996094 2.648638248443604 C 23.01728630065918 4.025816917419434 25.94160842895508 5.997495651245117 28.45303535461426 8.508888244628906 C 30.96442985534668 11.0202808380127 32.93610763549805 13.9446382522583 34.31328582763672 17.20067405700684 C 35.73903656005859 20.57145881652832 36.46192932128906 24.15242385864258 36.46192932128906 27.84406661987305 L 36.46192932128906 206.1168823242188 L 36.46192932128906 206.3668518066406 L 36.66189193725586 206.516845703125 C 36.7077522277832 206.5513153076172 41.31135940551758 210.0410003662109 45.85174942016602 216.2530975341797 C 48.51300048828125 219.8941802978516 50.63275146484375 223.7452392578125 52.15203475952148 227.6993560791016 C 54.04803466796875 232.6338500976563 55.00939178466797 237.7453460693359 55.00939178466797 242.891845703125 C 55.00939178466797 248.7074279785156 54.11307144165039 254.3645629882813 52.34535598754883 259.7061767578125 C 50.482177734375 265.3362731933594 47.72982025146484 270.3495788574219 44.16482162475586 274.6067810058594 C 40.32182312011719 279.1959533691406 35.61624908447266 282.7926025390625 30.1788215637207 285.2967834472656 C 24.24971389770508 288.0274353027344 17.47064399719238 289.4410095214844 10.02989292144775 289.4981994628906 C 9.877857208251953 289.4993896484375 9.72357177734375 289.5 9.572178840637207 289.5 Z" stroke="none"/>
      <path d="M 9.117822647094727 1 C 5.493438720703125 1 1.978054046630859 1.709625244140625 -1.330791473388672 3.109130859375 C -4.527254104614258 4.46112060546875 -7.398176193237305 6.396820068359375 -9.863792419433594 8.8624267578125 C -12.32944679260254 11.32809448242188 -14.26513862609863 14.19900512695313 -15.61713790893555 17.39547729492188 C -17.01663970947266 20.70428466796875 -17.72625350952148 24.21969604492188 -17.72625350952148 27.84408569335938 L -17.72625350952148 207.0435028076172 L -17.72625350952148 207.5578918457031 L -18.14471435546875 207.8569946289063 C -18.18863677978516 207.888427734375 -22.59109878540039 211.0670013427734 -27.06048583984375 216.9733581542969 C -29.68606185913086 220.4430847167969 -31.80840682983398 224.1510314941406 -33.36859893798828 227.9942321777344 C -35.31552505493164 232.7899627685547 -36.38798522949219 237.8133087158203 -36.55629348754883 242.9247436523438 C -36.74817657470703 248.7523193359375 -35.74717712402344 254.7633514404297 -33.66148376464844 260.3079528808594 C -32.60044479370117 263.1287231445313 -31.25875473022461 265.84228515625 -29.67363739013672 268.3732604980469 C -28.04837036132813 270.9683837890625 -26.15694808959961 273.3873596191406 -24.0518684387207 275.5628356933594 C -20.00344467163086 279.7467651367188 -15.20167541503906 283.0209655761719 -9.7799072265625 285.2945556640625 C -3.916599273681641 287.7532653808594 2.594399452209473 288.9999694824219 9.572169303894043 288.9999694824219 C 9.722246170043945 288.9999694824219 9.875207901000977 288.9993896484375 10.02605438232422 288.9982299804688 C 17.39539909362793 288.9415283203125 24.10540008544922 287.5433959960938 29.96966934204102 284.8426208496094 C 35.33936309814453 282.36962890625 39.98632049560547 278.8177795410156 43.78147888183594 274.2857360839844 C 47.3057861328125 270.0771179199219 50.02740097045898 265.1190185546875 51.87067031860352 259.5490417480469 C 53.6215934753418 254.2581939697266 54.50936126708984 248.6538848876953 54.50936126708984 242.8918151855469 C 54.50936126708984 237.8135070800781 53.56166839599609 232.7687377929688 51.69255447387695 227.8976593017578 C 50.19232177734375 223.9878540039063 48.09793853759766 220.1783142089844 45.46759033203125 216.5748901367188 C 40.97063064575195 210.4142456054688 36.40697479248047 206.9507751464844 36.36186218261719 206.9168395996094 L 35.96189880371094 206.6168518066406 L 35.96189880371094 206.1168823242188 L 35.96189880371094 27.84408569335938 C 35.96189880371094 24.21969604492188 35.25228500366211 20.70428466796875 33.852783203125 17.39547729492188 C 32.50078582763672 14.19900512695313 30.56509208679199 11.32809448242188 28.0994758605957 8.8624267578125 C 25.63382339477539 6.396820068359375 22.76289939880371 4.46112060546875 19.56643867492676 3.109130859375 C 16.25763130187988 1.709625244140625 12.74220752716064 1 9.117822647094727 1 M 9.117822647094727 0 C 24.49570846557617 0 36.96189880371094 12.4661865234375 36.96189880371094 27.84408569335938 L 36.96189880371094 206.1168823242188 C 36.96189880371094 206.1168823242188 55.50936126708984 220.029541015625 55.50936126708984 242.8918151855469 C 55.50936126708984 265.7540893554688 41.43801498413086 289.7566223144531 10.03374671936035 289.9981994628906 C 9.880405426025391 289.9993896484375 9.724812507629395 289.9999694824219 9.572161674499512 289.9999694824219 C -21.53808975219727 289.9999694824219 -38.30699157714844 265.7071533203125 -37.55575561523438 242.8918151855469 C -36.80086898803711 219.9645385742188 -18.72625350952148 207.0435028076172 -18.72625350952148 207.0435028076172 L -18.72625350952148 27.84408569335938 C -18.72625350952148 12.4661865234375 -6.26002311706543 0 9.117822647094727 0 Z" stroke="none" fill="#c5c5c5"/>
    </g>
    <g id="Gruppe_6" data-name="Gruppe 6" transform="translate(99.956 102.95)">
      <g id="Gruppe_7" data-name="Gruppe 7" transform="translate(0 109.318)">
        <ellipse id="Ellipse_1" data-name="Ellipse 1" cx="30" cy="30.5" rx="30" ry="30.5" transform="translate(0.044 -0.268)" fill="#f69143"/>
        <ellipse id="Ellipse_2" data-name="Ellipse 2" cx="24.5" cy="24" rx="24.5" ry="24" transform="translate(5.044 5.732)" fill="#f69143"/>
      </g>
      <g id="Gruppe_8" data-name="Gruppe 8" transform="translate(19.104 0)">
        <rect id="Rechteck_2" data-name="Rechteck 2" width="22" height="132" rx="11" transform="translate(-0.06 0.05)" fill="#f69143"/>
        <path id="Pfad_23" data-name="Pfad 23" d="M-.222,4.406S-1.305.739,4.378.87s4.86,3.536,4.86,3.536l-.166,109.24H-.118Z" transform="translate(6.273 5.936)" fill="#f69143"/>
      </g>
    </g>
  </g>
</svg>
