<svg xmlns="http://www.w3.org/2000/svg" xmlns:xlink="http://www.w3.org/1999/xlink" width="260" height="290" viewBox="0 0 260 290">
  <defs>
    <linearGradient id="linear-gradient" x1="0.5" y1="-3.177" x2="0.5" y2="1" gradientUnits="objectBoundingBox">
      <stop offset="0" stop-color="#ff9100"/>
      <stop offset="1" stop-color="#e31957"/>
    </linearGradient>
    <clipPath id="clip-temparature-hot-s">
      <rect width="260" height="290"/>
    </clipPath>
  </defs>
  <g id="temparature-hot-s" clip-path="url(#clip-temparature-hot-s)">
    <g id="Pfad_8" data-name="Pfad 8" transform="translate(121)" fill="#fff">
      <path d="M 9.314231872558594 289.5000305175781 C 2.333553552627563 289.5000305175781 -4.185196399688721 288.2490539550781 -10.0609827041626 285.7818908691406 C -15.50137519836426 283.4975280761719 -20.32405281066895 280.2063903808594 -24.39505386352539 275.9998779296875 C -26.52641105651855 273.797607421875 -28.44162559509277 271.3470764160156 -30.08748245239258 268.7164306640625 C -31.69198226928711 266.1518249511719 -33.05026626586914 263.4010925292969 -34.12455368041992 260.5407104492188 C -36.23605346679688 254.9186096191406 -37.2497673034668 248.8213958740234 -37.05615997314453 242.908203125 C -36.8868408203125 237.7373809814453 -35.80794525146484 232.6560363769531 -33.84951782226563 227.8052825927734 C -32.28144836425781 223.9214935302734 -30.14908981323242 220.1752471923828 -27.51162528991699 216.6706085205078 C -23.02162551879883 210.704345703125 -18.58194732666016 207.4813842773438 -18.53762435913086 207.4495239257813 L -18.32944679260254 207.2998809814453 L -18.32944679260254 207.0435333251953 L -18.32944679260254 27.84406661987305 C -18.32944679260254 24.15206718444824 -17.61044692993164 20.57081604003906 -16.19241142272949 17.19978141784668 C -14.82273197174072 13.94363784790039 -12.86183929443359 11.0192813873291 -10.36419677734375 8.50792407989502 C -7.866767883300781 5.996745586395264 -4.958767890930176 4.025245666503906 -1.720910787582397 2.648245334625244 C 1.630839228630066 1.222781181335449 5.19151782989502 0.4999954402446747 8.86226749420166 0.4999954402446747 C 12.53301811218262 0.4999954402446747 16.09369659423828 1.222781181335449 19.4454460144043 2.648245334625244 C 22.68330383300781 4.025245666503906 25.5913028717041 5.996745586395264 28.08873176574707 8.50792407989502 C 30.58637428283691 11.0192813873291 32.54726791381836 13.94363784790039 33.91694641113281 17.19978141784668 C 35.33498382568359 20.57081604003906 36.05398178100586 24.15206718444824 36.05398178100586 27.84406661987305 L 36.05398178100586 206.1168823242188 L 36.05398178100586 206.3660278320313 L 36.25291061401367 206.5160675048828 C 36.29851913452148 206.5504913330078 40.87683868408203 210.0401458740234 45.39230346679688 216.2521667480469 C 48.03901672363281 219.8932800292969 50.14712524414063 223.7444305419922 51.65816116333008 227.6986083984375 C 53.54383850097656 232.6333160400391 54.49998092651367 237.7450714111328 54.49998092651367 242.891845703125 C 54.49998092651367 248.7077026367188 53.60855484008789 254.3651428222656 51.85041046142578 259.7069702148438 C 49.99737548828125 265.3372192382813 47.26005172729492 270.3506164550781 43.71451950073242 274.6078491210938 C 39.89273071289063 279.1968078613281 35.21319580078125 282.7932434082031 29.80594635009766 285.2972412109375 C 23.90987396240234 288.027587890625 17.16858863830566 289.4410400390625 9.769339561462402 289.4982604980469 C 9.618124961853027 289.4994201660156 9.464767456054688 289.5000305175781 9.314231872558594 289.5000305175781 Z" stroke="none"/>
      <path d="M 8.862272262573242 1 C 5.259157180786133 1 1.764310836791992 1.7093505859375 -1.525228500366211 3.10833740234375 C -4.70338249206543 4.459991455078125 -7.557958602905273 6.39532470703125 -10.00965118408203 8.860504150390625 C -12.46176719665527 11.32608032226563 -14.38684272766113 14.19705200195313 -15.73149871826172 17.39364624023438 C -17.12357330322266 20.7030029296875 -17.82942199707031 24.21905517578125 -17.82942199707031 27.84408569335938 L -17.82942199707031 207.0435028076172 L -17.82942199707031 207.5562438964844 L -18.24576568603516 207.8554992675781 C -18.28945922851563 207.8869323730469 -22.66738128662109 211.0651550292969 -27.11211395263672 216.9712371826172 C -29.72334289550781 220.4410400390625 -31.83415222167969 224.1491088867188 -33.38588333129883 227.9924621582031 C -35.32230377197266 232.7886657714844 -36.38903427124023 237.8125457763672 -36.55641937255859 242.9245758056641 C -36.74792098999023 248.7728118896484 -35.74515151977539 254.8035888671875 -33.65645980834961 260.3648986816406 C -32.5938835144043 263.1941528320313 -31.25049591064453 265.9148254394531 -29.66361236572266 268.4512023925781 C -28.03630447387695 271.05224609375 -26.14280319213867 273.4749755859375 -24.0357666015625 275.6521606445313 C -20.01203536987305 279.809814453125 -15.24511337280273 283.0628051757813 -9.867420196533203 285.3208618164063 C -4.053266525268555 287.7621459960938 2.400387763977051 289 9.31419563293457 289 C 9.463464736938477 289 9.61546516418457 288.9994201660156 9.765464782714844 288.9982604980469 C 17.09300231933594 288.9415893554688 23.7648868560791 287.5437316894531 29.59580993652344 284.8435363769531 C 34.93534851074219 282.3708801269531 39.5562744140625 278.8194580078125 43.3303108215332 274.287841796875 C 46.83538818359375 270.0791625976563 49.54215621948242 265.120849609375 51.37546539306641 259.5506591796875 C 53.11696624755859 254.2593078613281 53.99996566772461 248.6545104980469 53.99996566772461 242.891845703125 C 53.99996566772461 237.8129577636719 53.05735015869141 232.7676544189453 51.19834899902344 227.8961181640625 C 49.70627212524414 223.9862060546875 47.62334823608398 220.1765441894531 45.00738525390625 216.5730438232422 C 40.53519439697266 210.4125061035156 35.99669647216797 206.9491882324219 35.95185089111328 206.915283203125 L 35.55400085449219 206.6152038574219 L 35.55400085449219 206.1168823242188 L 35.55400085449219 27.84408569335938 C 35.55400085449219 24.21905517578125 34.8481559753418 20.7030029296875 33.45607757568359 17.39364624023438 C 32.11142730712891 14.19705200195313 30.18630981445313 11.32608032226563 27.73423385620117 8.860504150390625 C 25.28254127502441 6.39532470703125 22.42796516418457 4.459991455078125 19.24977111816406 3.10833740234375 C 15.96027183532715 1.7093505859375 12.46538734436035 1 8.862272262573242 1 M 8.862272262573242 0 C 24.15600204467773 0 36.55400085449219 12.4661865234375 36.55400085449219 27.84408569335938 L 36.55400085449219 206.1168823242188 C 36.55400085449219 206.1168823242188 54.99996566772461 220.029541015625 54.99996566772461 242.891845703125 C 54.99996566772461 265.7541198730469 41.00557708740234 289.7566528320313 9.773195266723633 289.9982299804688 C 9.620693206787109 289.9994201660156 9.466024398803711 290 9.314208984375 290 C -21.62580490112305 290 -38.30298614501953 265.7071533203125 -37.55588150024414 242.891845703125 C -36.80511093139648 219.9645385742188 -18.82942199707031 207.0435028076172 -18.82942199707031 207.0435028076172 L -18.82942199707031 27.84408569335938 C -18.82942199707031 12.4661865234375 -6.431419372558594 0 8.862272262573242 0 Z" stroke="none" fill="#c5c5c5"/>
    </g>
    <g id="Gruppe_3" data-name="Gruppe 3" transform="translate(99.517 17.564)" style="isolation: isolate">
      <g id="Gruppe_4" data-name="Gruppe 4" transform="translate(0 194.238)">
        <ellipse id="Ellipse_1" data-name="Ellipse 1" cx="30" cy="30.5" rx="30" ry="30.5" transform="translate(0.483 0.198)" fill="url(#linear-gradient)"/>
        <ellipse id="Ellipse_2" data-name="Ellipse 2" cx="25.5" cy="26" rx="25.5" ry="26" transform="translate(5.483 5.198)" fill="url(#linear-gradient)"/>
      </g>
      <g id="Gruppe_5" data-name="Gruppe 5" transform="translate(19.63 0)">
        <rect id="Rechteck_2" data-name="Rechteck 2" width="22" height="217" rx="11" transform="translate(-0.147 0.436)" fill="#e31957"/>
        <path id="Pfad_23" data-name="Pfad 23" d="M-.177,7.023a7.347,7.347,0,0,1,.3-2.679C.586,2.759,1.987.77,5.733.733c6.653-.065,5.677,6.29,5.677,6.29l-.2,192.092H-.05Z" transform="translate(5.703 5.852)" fill="#e31957"/>
      </g>
    </g>
  </g>
</svg>
