<svg xmlns="http://www.w3.org/2000/svg" xmlns:xlink="http://www.w3.org/1999/xlink" width="260" height="290" viewBox="0 0 260 290">
  <defs>
    <clipPath id="clip-temparature-cold-w">
      <rect width="260" height="290"/>
    </clipPath>
  </defs>
  <g id="temparature-cold-w" clip-path="url(#clip-temparature-cold-w)">
    <g id="Pfad_8" data-name="Pfad 8" transform="translate(121)" fill="#fff">
      <path d="M 9.314217567443848 286 C -3.220740795135498 286 -14.00753211975098 281.7003173828125 -21.88003158569336 273.5658264160156 C -23.84119987487793 271.5393676757813 -25.60428237915039 269.283203125 -27.12032318115234 266.8600463867188 C -28.60140800476074 264.4927368164063 -29.8555736541748 261.95263671875 -30.84803199768066 259.3101196289063 C -32.79969787597656 254.1136169433594 -33.73678207397461 248.4815368652344 -33.55803298950195 243.0227508544922 C -33.40399169921875 238.3185882568359 -32.43103408813477 233.6915435791016 -30.66611671447754 229.2702026367188 C -29.23890686035156 225.6947937011719 -27.29099082946777 222.2363739013672 -24.87657356262207 218.9910430908203 C -20.76317596435547 213.4620819091797 -16.65229034423828 210.4075012207031 -16.49092674255371 210.2888336181641 L -14.81240749359131 209.0955352783203 L -14.82940769195557 207.0435333251953 L -14.82940769195557 27.84408187866211 C -14.82940769195557 24.62066459655762 -14.20253276824951 21.49599838256836 -12.96619892120361 18.5568733215332 C -11.77178287506104 15.71741485595703 -10.06136608123779 13.16683101654053 -7.882532596588135 10.97599792480469 C -5.705157279968262 8.786664962768555 -3.17124080657959 7.068456172943115 -0.3510741293430328 5.869039535522461 C 2.565050840377808 4.628831386566162 5.664884090423584 3.999998092651367 8.862300872802734 3.999998092651367 C 12.05971717834473 3.999998092651367 15.15955066680908 4.628831386566162 18.07571792602539 5.869039535522461 C 20.89584159851074 7.068456172943115 23.42980003356934 8.786664962768555 25.60713386535645 10.97599792480469 C 27.78600883483887 13.16683101654053 29.49638366699219 15.71741485595703 30.6908016204834 18.5568733215332 C 31.92717552185059 21.49599838256836 32.55405044555664 24.62066459655762 32.55405044555664 27.84408187866211 L 32.55405044555664 206.1168670654297 L 32.55405044555664 208.1216583251953 L 34.14312744140625 209.3086853027344 C 34.31480407714844 209.4409790039063 38.54570007324219 212.7331695556641 42.69271850585938 218.4917449951172 C 45.12517547607422 221.8694610595703 47.05784225463867 225.4301605224609 48.43709182739258 229.0750427246094 C 50.13771820068359 233.5692138671875 51.00000762939453 238.2178802490234 51.00000762939453 242.8918304443359 C 51.00000762939453 248.3353271484375 50.1675910949707 253.6246185302734 48.52588272094727 258.6127624511719 C 46.81113433837891 263.82275390625 44.28750991821289 268.4507141113281 41.0251350402832 272.3679504394531 C 37.53775787353516 276.5553588867188 33.26826095581055 279.8368225097656 28.33521842956543 282.1212158203125 C 22.89492607116699 284.6405334472656 16.63934326171875 285.9449462890625 9.74225902557373 285.9983215332031 C 9.600050926208496 285.9994201660156 9.455801010131836 286 9.314217567443848 286 Z" stroke="none"/>
      <path d="M 8.862312316894531 8 C -1.995733261108398 8 -10.82941436767578 16.90200805664063 -10.82941436767578 27.84408569335938 L -10.82941436767578 207.0435180664063 L -10.86550521850586 211.1167297363281 L -14.12559700012207 213.5144653320313 C -14.27382469177246 213.6235046386719 -28.95359802246094 224.6293334960938 -29.56018829345703 243.1536407470703 C -29.89682388305664 253.4345550537109 -26.04982376098633 263.5054626464844 -19.00564193725586 270.7840576171875 C -11.90575981140137 278.1202087402344 -2.115753173828125 281.9984130859375 9.704294204711914 281.9984130859375 C 9.706459045410156 281.9984130859375 9.709192276000977 281.9984130859375 9.711357116699219 281.9984130859375 C 35.47003936767578 281.7991943359375 46.99999237060547 262.2136840820313 46.99999237060547 242.8918304443359 C 46.99999237060547 224.4619750976563 31.85967636108398 212.5987396240234 31.73672103881836 212.5038299560547 L 28.55403900146484 210.1033325195313 L 28.55403900146484 206.1168823242188 L 28.55403900146484 27.84408569335938 C 28.55403900146484 16.90200805664063 19.72035789489746 8 8.862312316894531 8 M 8.862312316894531 0 C 24.15604019165039 0 36.55403900146484 12.4661865234375 36.55403900146484 27.84408569335938 L 36.55403900146484 206.1168823242188 C 36.55403900146484 206.1168823242188 54.99999237060547 220.0295562744141 54.99999237060547 242.8918304443359 C 54.99999237060547 265.7540893554688 41.00563049316406 289.756591796875 9.773221969604492 289.9981994628906 C 9.620719909667969 289.9993591308594 9.466036796569824 289.9999694824219 9.314221382141113 289.9999694824219 C -21.62581634521484 289.9999694824219 -38.302978515625 265.7071533203125 -37.55591583251953 242.8918304443359 C -36.80514144897461 219.9645538330078 -18.82941436767578 207.0435180664063 -18.82941436767578 207.0435180664063 L -18.82941436767578 27.84408569335938 C -18.82941436767578 12.4661865234375 -6.431415557861328 0 8.862312316894531 0 Z" stroke="none" fill="#e2e2e2"/>
    </g>
    <g id="Gruppe_11" data-name="Gruppe 11" transform="translate(99.676 184.612)">
      <g id="Gruppe_9" data-name="Gruppe 9" transform="translate(0 27.442)">
        <g id="Ellipse_1" data-name="Ellipse 1" transform="translate(0.324 -0.054)" fill="none" stroke="#a8d2fc" stroke-width="15">
          <circle cx="30" cy="30" r="30" stroke="none"/>
          <circle cx="30" cy="30" r="22.5" fill="none"/>
        </g>
        <ellipse id="Ellipse_2" data-name="Ellipse 2" cx="25.5" cy="25" rx="25.5" ry="25" transform="translate(6.324 6.946)" fill="#a8d2fc"/>
      </g>
      <g id="Gruppe_10" data-name="Gruppe 10" transform="translate(18.96 0)">
        <rect id="Rechteck_2" data-name="Rechteck 2" width="22" height="50" rx="11" transform="translate(0.364 0.388)" fill="#a8d2fc"/>
        <path id="Pfad_23" data-name="Pfad 23" d="M-.465,7.154S-1.56.816,5.229.868s5.608,6.285,5.608,6.285V45.966H-.142Z" transform="translate(6.179 -0.868)" fill="#a8d2fc"/>
      </g>
    </g>
  </g>
</svg>
