<svg xmlns="http://www.w3.org/2000/svg" xmlns:xlink="http://www.w3.org/1999/xlink" width="260" height="290" viewBox="0 0 260 290">
  <defs>
    <linearGradient id="linear-gradient" x1="0.5" y1="-3.177" x2="0.5" y2="1" gradientUnits="objectBoundingBox">
      <stop offset="0" stop-color="#ff9100"/>
      <stop offset="1" stop-color="#e31957"/>
    </linearGradient>
    <clipPath id="clip-temparature-hot-w">
      <rect width="260" height="290"/>
    </clipPath>
  </defs>
  <g id="temparature-hot-w" clip-path="url(#clip-temparature-hot-w)">
    <g id="Pfad_8" data-name="Pfad 8" transform="translate(121)" fill="#fff">
      <path d="M 9.314202308654785 286 C -3.220756053924561 286 -14.00754737854004 281.7003479003906 -21.88004684448242 273.5657958984375 C -23.84121513366699 271.5393981933594 -25.60429763793945 269.2832336425781 -27.12033843994141 266.8600158691406 C -28.6014232635498 264.4927673339844 -29.85558891296387 261.9526062011719 -30.8480052947998 259.3101501464844 C -32.7996711730957 254.1136016845703 -33.73679733276367 248.4815521240234 -33.55800628662109 243.0227661132813 C -33.40400695800781 238.3185577392578 -32.43100738525391 233.6915588378906 -30.6661319732666 229.2702178955078 C -29.2388801574707 225.6948089599609 -27.29100608825684 222.2363891601563 -24.87658882141113 218.9910583496094 C -20.74687957763672 213.4401397705078 -16.61969184875488 210.3832855224609 -16.48919677734375 210.2875213623047 L -14.81242275238037 209.0955200195313 L -14.82942295074463 207.0435180664063 L -14.82942295074463 27.84409713745117 C -14.82942295074463 24.62067985534668 -14.20254802703857 21.49601364135742 -12.96621417999268 18.55688858032227 C -11.7717981338501 15.71743011474609 -10.06138134002686 13.16684627532959 -7.882547855377197 10.97601318359375 C -5.705172538757324 8.786680221557617 -3.171256065368652 7.068471431732178 -0.3510893881320953 5.869054794311523 C 2.565035581588745 4.628846645355225 5.664868831634521 4.00001335144043 8.862285614013672 4.00001335144043 C 12.05970191955566 4.00001335144043 15.15953540802002 4.628846645355225 18.07566070556641 5.869054794311523 C 20.89582633972168 7.068471431732178 23.42974472045898 8.786680221557617 25.60711860656738 10.97601318359375 C 27.78595161437988 13.16684627532959 29.49636840820313 15.71743011474609 30.69078636169434 18.55688858032227 C 31.9271183013916 21.49601364135742 32.55399322509766 24.62067985534668 32.55399322509766 27.84409713745117 L 32.55399322509766 206.1168823242188 L 32.55399322509766 208.1216735839844 L 34.14131164550781 209.3073883056641 C 34.28276062011719 209.4161376953125 38.52995681762695 212.7113952636719 42.69270324707031 218.4917602539063 C 45.12516021728516 221.8694763183594 47.05782699584961 225.43017578125 48.43707656860352 229.0750579833984 C 50.13770294189453 233.5692596435547 50.99999237060547 238.2178955078125 50.99999237060547 242.891845703125 C 50.99999237060547 248.3353424072266 50.16757583618164 253.6246032714844 48.5258674621582 258.6127624511719 C 46.81111907958984 263.82275390625 44.28749465942383 268.45068359375 41.02507781982422 272.3679809570313 C 37.53774261474609 276.5553894042969 33.26824569702148 279.8368530273438 28.33520317077637 282.1212158203125 C 22.89486885070801 284.6405639648438 16.63932800292969 285.9449768066406 9.742243766784668 285.9983520507813 C 9.600035667419434 285.9994201660156 9.455785751342773 286 9.314202308654785 286 Z" stroke="none"/>
      <path d="M 8.862293243408203 7.999969482421875 C -1.995752334594727 7.999969482421875 -10.82943344116211 16.9019775390625 -10.82943344116211 27.84405517578125 L -10.82943344116211 207.0435180664063 L -10.86552429199219 211.1167602539063 L -14.1256160736084 213.5144805908203 C -14.27384376525879 213.6234741210938 -28.95357131958008 224.6293334960938 -29.56016159057617 243.1536560058594 C -29.89684295654297 253.4345703125 -26.04984283447266 263.5054321289063 -19.00566101074219 270.7840576171875 C -11.9057788848877 278.1202392578125 -2.115816116333008 281.9984436035156 9.704275131225586 281.9984436035156 C 9.706439971923828 281.9984436035156 9.709173202514648 281.9984436035156 9.711338043212891 281.9984436035156 C 35.47002029418945 281.7992553710938 46.99997711181641 262.2137451171875 46.99997711181641 242.891845703125 C 46.99997711181641 224.4619750976563 31.85961151123047 212.5987548828125 31.73665618896484 212.5038909912109 L 28.55397415161133 210.1033325195313 L 28.55397415161133 206.1168823242188 L 28.55397415161133 27.84405517578125 C 28.55397415161133 16.9019775390625 19.72033882141113 7.999969482421875 8.862293243408203 7.999969482421875 M 8.862293243408203 -3.0517578125e-05 C 24.15597534179688 -3.0517578125e-05 36.55397415161133 12.46621704101563 36.55397415161133 27.84405517578125 L 36.55397415161133 206.1168823242188 C 36.55397415161133 206.1168823242188 54.99997329711914 220.0295715332031 54.99997329711914 242.891845703125 C 54.99997329711914 265.7541198730469 41.00561141967773 289.7566528320313 9.773202896118164 289.9981994628906 C 9.620700836181641 289.9993896484375 9.466017723083496 289.9999694824219 9.314202308654785 289.9999694824219 C -21.62583541870117 289.9999694824219 -38.30299377441406 265.7071533203125 -37.55588912963867 242.891845703125 C -36.80511474609375 219.9645690917969 -18.82943344116211 207.0435180664063 -18.82943344116211 207.0435180664063 L -18.82943344116211 27.84405517578125 C -18.82943344116211 12.46621704101563 -6.431434631347656 -3.0517578125e-05 8.862293243408203 -3.0517578125e-05 Z" stroke="none" fill="#e2e2e2"/>
    </g>
    <g id="Gruppe_3" data-name="Gruppe 3" transform="translate(99.517 17.564)" style="isolation: isolate">
      <g id="Gruppe_4" data-name="Gruppe 4" transform="translate(0 194.238)">
        <ellipse id="Ellipse_1" data-name="Ellipse 1" cx="30" cy="30.5" rx="30" ry="30.5" transform="translate(0.483 0.198)" fill="url(#linear-gradient)"/>
        <ellipse id="Ellipse_2" data-name="Ellipse 2" cx="25.5" cy="26" rx="25.5" ry="26" transform="translate(5.483 5.198)" fill="url(#linear-gradient)"/>
      </g>
      <g id="Gruppe_5" data-name="Gruppe 5" transform="translate(19.63 0)">
        <rect id="Rechteck_2" data-name="Rechteck 2" width="22" height="217" rx="11" transform="translate(-0.147 0.436)" fill="#e31957"/>
        <path id="Pfad_23" data-name="Pfad 23" d="M-.177,7.023a7.347,7.347,0,0,1,.3-2.679C.586,2.759,1.987.77,5.733.733c6.653-.065,5.677,6.29,5.677,6.29l-.2,192.092H-.05Z" transform="translate(5.703 5.852)" fill="#e31957"/>
      </g>
    </g>
  </g>
</svg>
