<svg xmlns="http://www.w3.org/2000/svg" xmlns:xlink="http://www.w3.org/1999/xlink" width="260" height="290" viewBox="0 0 260 290">
  <defs>
    <clipPath id="clip-temparature-warm-w">
      <rect width="260" height="290"/>
    </clipPath>
  </defs>
  <g id="temparature-warm-w" clip-path="url(#clip-temparature-warm-w)">
    <g id="Pfad_8" data-name="Pfad 8" transform="translate(121)" fill="#fff">
      <path d="M 9.572274208068848 286 C -3.086892366409302 286 -13.96839237213135 281.6695251464844 -21.89589309692383 273.4767761230469 C -23.85547637939453 271.4515991210938 -25.61684989929199 269.1987915039063 -27.13105964660645 266.7809753417969 C -28.61030960083008 264.4190063476563 -29.86272621154785 261.8858032226563 -30.85355949401855 259.2517700195313 C -32.80180740356445 254.072509765625 -33.73697662353516 248.4608917236328 -33.55793380737305 243.0234680175781 C -32.87589263916016 222.3096771240234 -16.56472587585449 210.4152221679688 -16.40005874633789 210.2975158691406 L -14.72626781463623 209.1009674072266 L -14.72626781463623 207.0434722900391 L -14.72626781463623 27.84409713745117 C -14.72626781463623 24.62338829040527 -14.09639263153076 21.50118064880371 -12.85414218902588 18.56413841247559 C -11.65339279174805 15.72526359558105 -9.933600425720215 13.17488861083984 -7.742517471313477 10.98376369476318 C -5.551392555236816 8.792679786682129 -3.001017332077026 7.072888374328613 -0.1621423959732056 5.872138500213623 C 2.774899244308472 4.629888534545898 5.897107601165771 4.00001335144043 9.117815971374512 4.00001335144043 C 12.33852386474609 4.00001335144043 15.46073246002197 4.629888534545898 18.39777374267578 5.872138500213623 C 21.23664855957031 7.072888374328613 23.78702354431152 8.792679786682129 25.9781494140625 10.98376369476318 C 28.16923332214355 13.17488861083984 29.88902473449707 15.72526359558105 31.08977508544922 18.56413841247559 C 32.33202362060547 21.50118064880371 32.96189880371094 24.62338829040527 32.96189880371094 27.84409713745117 L 32.96189880371094 206.1168823242188 L 32.96189880371094 208.1282196044922 L 34.55709838867188 209.3133087158203 C 34.68780517578125 209.4131927490234 38.96540451049805 212.7100677490234 43.15756607055664 218.4991760253906 C 45.60335922241211 221.8766326904297 47.54660797119141 225.4368896484375 48.93323135375977 229.0811004638672 C 50.64265060424805 233.5735168457031 51.5093994140625 238.2201385498047 51.5093994140625 242.891845703125 C 51.5093994140625 248.3330993652344 50.67273330688477 253.6203002929688 49.02260589599609 258.6065673828125 C 47.2988166809082 263.8154296875 44.7616081237793 268.442626953125 41.48144149780273 272.3596801757813 C 37.97348403930664 276.5487670898438 33.67815017700195 279.8318481445313 28.7147331237793 282.1177368164063 C 23.23956680297852 284.6393127441406 16.94402503967285 285.9449157714844 10.00302410125732 285.9983520507813 C 9.859899520874023 285.9994201660156 9.71473217010498 286 9.572274208068848 286 Z" stroke="none"/>
      <path d="M 9.117815971374512 7.999969482421875 C -1.824274063110352 7.999969482421875 -10.72627449035645 16.9019775390625 -10.72627449035645 27.84405517578125 L -10.72627449035645 207.0434875488281 L -10.72627449035645 211.1584320068359 L -14.07382011413574 213.551513671875 C -14.22245597839355 213.6577453613281 -28.94232177734375 224.3926086425781 -29.56009292602539 243.1551208496094 C -29.89700317382813 253.3873443603516 -26.0557746887207 263.4253540039063 -19.02136611938477 270.6951904296875 C -11.86653900146484 278.0894775390625 -1.981868743896484 281.9984436035156 9.965141296386719 281.9984436035156 C 9.967329025268555 281.9984436035156 9.970037460327148 281.9984436035156 9.972225189208984 281.9984436035156 C 35.902587890625 281.7989807128906 47.50936126708984 262.2135314941406 47.50936126708984 242.891845703125 C 47.50936126708984 224.4738006591797 32.28536224365234 212.6116638183594 32.16145324707031 212.5165252685547 L 28.96190643310547 210.1165161132813 L 28.96190643310547 206.1168823242188 L 28.96190643310547 27.84405517578125 C 28.96190643310547 16.9019775390625 20.05990600585938 7.999969482421875 9.117815971374512 7.999969482421875 M 9.117815971374512 -3.0517578125e-05 C 24.49567985534668 -3.0517578125e-05 36.96190643310547 12.46621704101563 36.96190643310547 27.84405517578125 L 36.96190643310547 206.1168823242188 C 36.96190643310547 206.1168823242188 55.50936126708984 220.0295715332031 55.50936126708984 242.891845703125 C 55.50936126708984 265.7540588378906 41.43799591064453 289.7566223144531 10.03377056121826 289.9981994628906 C 9.880429267883301 289.9993896484375 9.724895477294922 289.9999694824219 9.572244644165039 289.9999694824219 C -21.53804779052734 289.9999694824219 -38.30699920654297 265.7071533203125 -37.5557746887207 242.891845703125 C -36.80086517333984 219.9645690917969 -18.72627639770508 207.0434875488281 -18.72627639770508 207.0434875488281 L -18.72627639770508 27.84405517578125 C -18.72627639770508 12.46621704101563 -6.260047912597656 -3.0517578125e-05 9.117815971374512 -3.0517578125e-05 Z" stroke="none" fill="#e2e2e2"/>
    </g>
    <g id="Gruppe_6" data-name="Gruppe 6" transform="translate(99.956 102.95)">
      <g id="Gruppe_7" data-name="Gruppe 7" transform="translate(0 109.318)">
        <ellipse id="Ellipse_1" data-name="Ellipse 1" cx="30" cy="30.5" rx="30" ry="30.5" transform="translate(0.044 -0.268)" fill="#f69143"/>
        <ellipse id="Ellipse_2" data-name="Ellipse 2" cx="24.5" cy="24" rx="24.5" ry="24" transform="translate(5.044 5.732)" fill="#f69143"/>
      </g>
      <g id="Gruppe_8" data-name="Gruppe 8" transform="translate(19.104 0)">
        <rect id="Rechteck_2" data-name="Rechteck 2" width="22" height="132" rx="11" transform="translate(-0.06 0.05)" fill="#f69143"/>
        <path id="Pfad_23" data-name="Pfad 23" d="M-.222,4.406S-1.305.739,4.378.87s4.86,3.536,4.86,3.536l-.166,109.24H-.118Z" transform="translate(6.273 5.936)" fill="#f69143"/>
      </g>
    </g>
  </g>
</svg>
