<svg xmlns="http://www.w3.org/2000/svg" xmlns:xlink="http://www.w3.org/1999/xlink" width="260" height="290" viewBox="0 0 260 290">
  <defs>
    <clipPath id="clip-temparature-cold-s">
      <rect width="260" height="290"/>
    </clipPath>
  </defs>
  <g id="temparature-cold-s" clip-path="url(#clip-temparature-cold-s)">
    <g id="Pfad_8" data-name="Pfad 8" transform="translate(121)" fill="#fff">
      <path d="M 9.314175605773926 289.4999694824219 C 2.333497285842896 289.4999694824219 -4.185216903686523 288.2490234375 -10.06100273132324 285.7818603515625 C -15.5013952255249 283.4975280761719 -20.32403755187988 280.2063598632813 -24.39507484436035 275.9998779296875 C -26.52643203735352 273.7975769042969 -28.44161033630371 271.3470764160156 -30.08746719360352 268.7164001464844 C -31.69200325012207 266.1518249511719 -33.05025100708008 263.401123046875 -34.12453842163086 260.5407409667969 C -36.23603820800781 254.9185943603516 -37.24979019165039 248.8213806152344 -37.05614471435547 242.9081878662109 C -36.8870735168457 237.7446594238281 -35.81096649169922 232.6701965332031 -33.85775375366211 227.8256988525391 C -32.29314422607422 223.9451293945313 -30.16510963439941 220.2014465332031 -27.53275299072266 216.6986999511719 C -23.04243087768555 210.7236938476563 -18.58200263977051 207.4814758300781 -18.53746604919434 207.4494018554688 L -18.32957458496094 207.2997589111328 L -18.32943153381348 207.0435180664063 L -18.32943153381348 27.84408760070801 C -18.32943153381348 24.1520881652832 -17.61043167114258 20.57083702087402 -16.19239616394043 17.19980239868164 C -14.82271671295166 13.94365882873535 -12.86182403564453 11.01930141448975 -10.36418151855469 8.507944107055664 C -7.866752624511719 5.996766090393066 -4.958716869354248 4.025265693664551 -1.720895528793335 2.648265838623047 C 1.630854487419128 1.222801566123962 5.191568851470947 0.500015914440155 8.862318992614746 0.500015914440155 C 12.53306865692139 0.500015914440155 16.09374809265137 1.222801566123962 19.44549751281738 2.648265838623047 C 22.6833553314209 4.025265693664551 25.59135437011719 5.996766090393066 28.08878326416016 8.507944107055664 C 30.58642578125 11.01930141448975 32.54731750488281 13.94365882873535 33.91699600219727 17.19980239868164 C 35.33503341674805 20.57083702087402 36.05403137207031 24.1520881652832 36.05403137207031 27.84408760070801 L 36.05403137207031 206.1168670654297 L 36.05403137207031 206.3660125732422 L 36.25296020507813 206.5160522460938 C 36.29856872558594 206.5504760742188 40.87688827514648 210.0401306152344 45.39235305786133 216.2521514892578 C 48.03907012939453 219.8932647705078 50.14717483520508 223.7444152832031 51.65821075439453 227.6985931396484 C 53.54389190673828 232.63330078125 54.50003433227539 237.7450561523438 54.50003433227539 242.8918304443359 C 54.50003433227539 248.7076873779297 53.60860443115234 254.3650817871094 51.85046005249023 259.7069396972656 C 49.9974250793457 265.3371887207031 47.26010513305664 270.3505554199219 43.71456909179688 274.6077880859375 C 39.89278411865234 279.19677734375 35.21324920654297 282.7931823730469 29.80596160888672 285.2971801757813 C 23.90992546081543 288.0275573730469 17.16864013671875 289.4409790039063 9.769354820251465 289.4981994628906 C 9.61814022064209 289.4993591308594 9.46471118927002 289.4999694824219 9.314175605773926 289.4999694824219 Z" stroke="none"/>
      <path d="M 8.86229133605957 1 C 5.259176254272461 1 1.76432991027832 1.709320068359375 -1.525209426879883 3.10833740234375 C -4.703363418579102 4.459991455078125 -7.557939529418945 6.395294189453125 -10.00967025756836 8.8604736328125 C -12.46174812316895 11.32608032226563 -14.38686180114746 14.197021484375 -15.73151779174805 17.39364624023438 C -17.12359237670898 20.7030029296875 -17.82944107055664 24.21902465820313 -17.82944107055664 27.84405517578125 L -17.82944107055664 207.0435180664063 L -17.82997894287109 207.5558319091797 L -18.24524688720703 207.8551330566406 C -18.28936386108398 207.8869476318359 -22.70882415771484 211.1037292480469 -27.15413284301758 217.0271911621094 C -29.75520706176758 220.4931335449219 -31.85736083984375 224.1960754394531 -33.4022102355957 228.0329895019531 C -35.32828521728516 232.8167572021484 -36.3895149230957 237.8270263671875 -36.55643844604492 242.924560546875 C -36.74794006347656 248.7727966308594 -35.74517059326172 254.8035583496094 -33.65647888183594 260.3648681640625 C -32.59390258789063 263.1941528320313 -31.25051498413086 265.9147644042969 -29.66363143920898 268.451171875 C -28.03632354736328 271.0522155761719 -26.14286422729492 273.4749450683594 -24.03582382202148 275.652099609375 C -20.01209259033203 279.8097534179688 -15.24517059326172 283.0628051757813 -9.867439270019531 285.3208312988281 C -4.053323745727539 287.7621154785156 2.40032958984375 288.9999389648438 9.31413745880127 288.9999389648438 C 9.463406562805176 288.9999389648438 9.615484237670898 288.9993591308594 9.765483856201172 288.9982299804688 C 17.09302139282227 288.9415283203125 23.76490592956543 287.5436706542969 29.59586715698242 284.8434753417969 C 34.93536758422852 282.370849609375 39.55632781982422 278.8193969726563 43.33036804199219 274.2877807617188 C 46.83544540405273 270.0791320800781 49.54221343994141 265.120849609375 51.37552261352539 259.5505981445313 C 53.11702346801758 254.2592926025391 54.00002288818359 248.6544799804688 54.00002288818359 242.8918304443359 C 54.00002288818359 237.8129577636719 53.05740737915039 232.7676849365234 51.19840621948242 227.8961486816406 C 49.70632934570313 223.9861755371094 47.62340545654297 220.1765289306641 45.0074462890625 216.5730285644531 C 40.53521347045898 210.4125366210938 35.99671173095703 206.9491882324219 35.95186614990234 206.9152526855469 L 35.55402374267578 206.6151733398438 L 35.55402374267578 206.1168823242188 L 35.55402374267578 27.84405517578125 C 35.55402374267578 24.21902465820313 34.84817504882813 20.7030029296875 33.45610046386719 17.39364624023438 C 32.11144638061523 14.197021484375 30.18632888793945 11.32608032226563 27.7342529296875 8.8604736328125 C 25.28256034851074 6.395294189453125 22.4279842376709 4.459991455078125 19.24979019165039 3.10833740234375 C 15.96029090881348 1.709320068359375 12.46540641784668 1 8.86229133605957 1 M 8.86229133605957 0 C 24.15602111816406 0 36.55402374267578 12.46621704101563 36.55402374267578 27.84405517578125 L 36.55402374267578 206.1168823242188 C 36.55402374267578 206.1168823242188 55.00002288818359 220.0295715332031 55.00002288818359 242.8918304443359 C 55.00002288818359 265.7540893554688 41.00563812255859 289.756591796875 9.773214340209961 289.9981689453125 C 9.620712280273438 289.9993591308594 9.465970993041992 289.9999694824219 9.314155578613281 289.9999694824219 C -21.62585830688477 289.9999694824219 -38.30300521850586 265.7071533203125 -37.55590057373047 242.8918304443359 C -36.80513000488281 219.9645690917969 -18.82944107055664 207.0435180664063 -18.82944107055664 207.0435180664063 L -18.82944107055664 27.84405517578125 C -18.82944107055664 12.46621704101563 -6.431400299072266 0 8.86229133605957 0 Z" stroke="none" fill="#c5c5c5"/>
    </g>
    <g id="Gruppe_11" data-name="Gruppe 11" transform="translate(99.676 184.612)">
      <g id="Gruppe_9" data-name="Gruppe 9" transform="translate(0 27.442)">
        <g id="Ellipse_1" data-name="Ellipse 1" transform="translate(0.324 -0.054)" fill="none" stroke="#a8d2fc" stroke-width="15">
          <circle cx="30" cy="30" r="30" stroke="none"/>
          <circle cx="30" cy="30" r="22.5" fill="none"/>
        </g>
        <ellipse id="Ellipse_2" data-name="Ellipse 2" cx="25.5" cy="25" rx="25.5" ry="25" transform="translate(6.324 6.946)" fill="#a8d2fc"/>
      </g>
      <g id="Gruppe_10" data-name="Gruppe 10" transform="translate(18.96 0)">
        <rect id="Rechteck_2" data-name="Rechteck 2" width="22" height="50" rx="11" transform="translate(0.364 0.388)" fill="#a8d2fc"/>
        <path id="Pfad_23" data-name="Pfad 23" d="M-.465,7.154S-1.56.816,5.229.868s5.608,6.285,5.608,6.285V45.966H-.142Z" transform="translate(6.179 -0.868)" fill="#a8d2fc"/>
      </g>
    </g>
  </g>
</svg>
