<svg xmlns="http://www.w3.org/2000/svg" xmlns:xlink="http://www.w3.org/1999/xlink" width="260" height="290" viewBox="0 0 260 290">
  <defs>
    <clipPath id="clip-wind-flat-s">
      <rect width="260" height="290"/>
    </clipPath>
  </defs>
  <g id="wind-flat-s" clip-path="url(#clip-wind-flat-s)">
    <g id="Gruppe_2" data-name="Gruppe 2" transform="translate(29.768 150.516)" style="isolation: isolate">
      <path id="Pfad_12" data-name="Pfad 12" d="M362.408,411.667s.055-28.9.058-28.9h76.811c19.815-1.118,42.743,18.2,42.743,42.709s-21.865,37.054-41.58,37.426-33.56-20.863-33.56-20.863l18.036-15s6.24,10.9,15.524,10.734,12.468-5.649,12.468-12.3-4.63-13.8-13.685-13.8S362.408,411.667,362.408,411.667Z" transform="translate(-362.462 -382.71)" fill="#a8d2fc"/>
    </g>
    <g id="Pfad_22" data-name="Pfad 22" transform="translate(-1623 -97)" fill="#a8d2fc">
      <path d="M 1809.062622070313 281.7720947265625 C 1800.870849609375 281.7721862792969 1791.777221679688 274.4791259765625 1785.696655273438 268.2524719238281 L 1791.954345703125 262.7769775390625 C 1796.605346679688 266.9937438964844 1803.092407226563 271.1248779296875 1810.656860351563 271.1251525878906 L 1810.989624023438 271.1251525878906 L 1812.010986328125 271.0802001953125 C 1823.318237304688 269.7781066894531 1830.71240234375 262.0709533691406 1830.900634765625 251.8572082519531 C 1831.0087890625 245.9798583984375 1829.035766601563 240.6617431640625 1825.345092773438 236.8821411132813 C 1821.769409179688 233.2203826904297 1816.947387695313 231.2690277099609 1811.400512695313 231.2390289306641 C 1805.914428710938 231.2094116210938 1696.78662109375 231.0668334960938 1662.844116210938 231.0230407714844 L 1662.844116210938 219.0570068359375 C 1683.666137695313 219.0812683105469 1730.07421875 219.1387634277344 1734.343994140625 219.1740264892578 C 1734.3447265625 219.1740264892578 1734.34619140625 219.1740264892578 1734.346923828125 219.1740264892578 C 1740.106079101563 219.1740264892578 1745.510375976563 216.938232421875 1749.350463867188 213.0399169921875 C 1753.05810546875 209.2761688232422 1755.055786132813 204.2654571533203 1754.9755859375 198.9307403564453 C 1754.792602539063 186.7607727050781 1747.020141601563 178.9978942871094 1734.691284179688 178.6715240478516 C 1734.68896484375 178.6715240478516 1734.685302734375 178.6715240478516 1734.682983398438 178.6715240478516 C 1727.592895507813 178.6715240478516 1721.195068359375 183.0342407226563 1716.519287109375 187.4723968505859 L 1708.880126953125 181.0948028564453 C 1713.552124023438 175.3346862792969 1722.54443359375 167.6083068847656 1737.1884765625 167.5593109130859 C 1762.670776367188 167.5590972900391 1768.37451171875 191.4523162841797 1768.37451171875 199.8223876953125 C 1768.352294921875 204.7313537597656 1768.118774414063 206.9243469238281 1768.042358398438 207.4458923339844 L 1766.352783203125 218.9764556884766 L 1777.982666015625 219.0453948974609 C 1777.99267578125 219.0453186035156 1789.986694335938 218.9619293212891 1800.4208984375 218.9619293212891 C 1805.564208984375 218.9619293212891 1810.321533203125 218.9813842773438 1813.02587890625 219.0430297851563 C 1813.32373046875 219.0498199462891 1842.811767578125 220.6452026367188 1842.663452148438 253.6392517089844 C 1841.202026367188 273.45751953125 1823.88623046875 281.2875671386719 1809.510009765625 281.7647094726563 L 1809.062622070313 281.7720947265625 Z" stroke="none"/>
      <path d="M 1809.062744140625 291.7720947265625 C 1789.3798828125 291.7723083496094 1771.664184570313 267.2432556152344 1771.664184570313 267.2432556152344 L 1792.826904296875 248.7258453369141 C 1792.826904296875 248.7258453369141 1801.32275390625 261.1248168945313 1810.6572265625 261.1251525878906 C 1810.886596679688 261.1251525878906 1811.116088867188 261.11767578125 1811.346435546875 261.1023559570313 C 1816.449951171875 260.5091247558594 1820.79736328125 257.3707885742188 1820.90234375 251.6729736328125 C 1821.007690429688 245.9465179443359 1817.845825195313 241.2740173339844 1811.346435546875 241.2388916015625 C 1804.84716796875 241.2037506103516 1652.844116210938 241.0102081298828 1652.844116210938 241.0102081298828 L 1652.844116210938 209.045654296875 C 1652.844116210938 209.045654296875 1728.900390625 209.1287078857422 1734.426635742188 209.1743927001953 C 1734.457275390625 209.1746368408203 1734.488159179688 209.1747741699219 1734.518798828125 209.1747741699219 C 1740.009765625 209.1747741699219 1745.067504882813 205.1215972900391 1744.976684570313 199.0810699462891 C 1744.885375976563 193.0067901611328 1742.008911132813 188.8687438964844 1734.426635742188 188.6680297851563 C 1734.368286132813 188.6664733886719 1734.309814453125 188.6657104492188 1734.251342773438 188.6657104492188 C 1726.702758789063 188.6657104492188 1717.607177734375 201.4075164794922 1717.607177734375 201.4075164794922 L 1695.733154296875 183.145751953125 C 1695.733154296875 183.145751953125 1707.153564453125 157.6597442626953 1737.155029296875 157.5593872070313 C 1737.211791992188 157.5592041015625 1737.27099609375 157.5590972900391 1737.32763671875 157.5590972900391 C 1767.201416015625 157.5590972900391 1778.37451171875 183.5480499267578 1778.37451171875 199.8223876953125 C 1778.34375 206.6531982421875 1777.9130859375 209.045654296875 1777.9130859375 209.045654296875 C 1777.9130859375 209.045654296875 1789.949951171875 208.9619598388672 1800.4208984375 208.9619598388672 C 1805.6572265625 208.9619598388672 1810.500610351563 208.9828796386719 1813.253784179688 209.045654296875 C 1821.512451171875 209.2339782714844 1852.831787109375 216.2100677490234 1852.663330078125 253.6842041015625 C 1850.794921875 279.429931640625 1829.753662109375 291.0983276367188 1809.841796875 291.7592163085938 C 1809.581909179688 291.767822265625 1809.322021484375 291.7720947265625 1809.062744140625 291.7720947265625 Z" stroke="none" fill="#a8d2fc"/>
    </g>
  </g>
</svg>
